<?xml version="1.0" encoding="utf-8"?>
<!-- Generator: Adobe Illustrator 26.3.1, SVG Export Plug-In . SVG Version: 6.00 Build 0)  -->
<svg version="1.1" id="Layer_1" xmlns="http://www.w3.org/2000/svg" xmlns:xlink="http://www.w3.org/1999/xlink" x="0px" y="0px"
	 viewBox="0 0 512 512" style="enable-background:new 0 0 512 512;" xml:space="preserve">
<style type="text/css">
	.st0{fill-rule:evenodd;clip-rule:evenodd;}
</style>
<g>
	<path class="st0" d="M384.88,265.85c-25.5,24.67-37.15,60.17-31.1,95.01l11.19,64.76l-58.62-30.57
		c-15.46-8.07-32.87-12.34-50.33-12.34c-17.49,0-34.89,4.27-50.36,12.34l-58.62,30.57l11.21-64.76
		c6.02-34.84-5.63-70.34-31.13-95.01L79.7,219.99l65.54-9.46c35.25-5.07,65.69-27.02,81.46-58.71l29.31-58.93l29.31,58.93
		c15.74,31.7,46.21,53.64,81.43,58.71l65.56,9.46L384.88,265.85z M497.96,242.18c27.49-26.6,12.34-72.95-25.68-78.43l-96.61-13.92
		c-15.1-2.17-28.16-11.58-34.89-25.16l-43.21-86.85c-8.5-17.09-25.04-25.62-41.55-25.62c-16.54,0-33.08,8.53-41.57,25.62
		l-43.19,86.85c-6.76,13.58-19.81,22.99-34.89,25.16l-96.61,13.92c-38.02,5.49-53.2,51.83-25.7,78.43l69.91,67.61
		c10.93,10.56,15.92,25.77,13.34,40.69l-16.51,95.48c-5.15,29.72,18.66,53.86,45.67,53.86c7.12,0,14.49-1.68,21.58-5.39l86.4-45.08
		c6.76-3.51,14.16-5.29,21.58-5.29c7.4,0,14.8,1.78,21.56,5.29l86.43,45.08c7.09,3.71,14.44,5.39,21.56,5.39
		c27.01,0,50.82-24.14,45.67-53.86l-16.49-95.48c-2.59-14.92,2.38-30.13,13.31-40.69L497.96,242.18z"/>
</g>
</svg>
